SplineFontDB: 3.2
FontName: Salieri-Regular
FullName: Salieri
FamilyName: Salieri
Weight: Regular
Copyright: Copyright (c) 2020, Daniel Benjamin Miller.
Version: 000
ItalicAngle: 0
UnderlinePosition: -100
UnderlineWidth: 50
Ascent: 765
Descent: 235
InvalidEm: 0
LayerCount: 2
Layer: 0 0 "Back" 1
Layer: 1 0 "Fore" 0
XUID: [1021 572 -1837316912 15596597]
StyleMap: 0x0040
FSType: 0
OS2Version: 0
OS2_WeightWidthSlopeOnly: 0
OS2_UseTypoMetrics: 1
CreationTime: 1587885725
ModificationTime: 1588562631
PfmFamily: 17
TTFWeight: 400
TTFWidth: 5
LineGap: 90
VLineGap: 0
OS2TypoAscent: 0
OS2TypoAOffset: 1
OS2TypoDescent: 0
OS2TypoDOffset: 1
OS2TypoLinegap: 90
OS2WinAscent: 0
OS2WinAOffset: 1
OS2WinDescent: 0
OS2WinDOffset: 1
HheadAscent: 0
HheadAOffset: 1
HheadDescent: 0
HheadDOffset: 1
OS2FamilyClass: 258
OS2Vendor: 'PfEd'
Lookup: 4 0 1 "'liga' Standard Ligatures in Latin lookup 0" { "'liga' Standard Ligatures in Latin lookup 0-1"  } ['liga' ('DFLT' <'dflt' > 'latn' <'dflt' > ) ]
Lookup: 258 0 0 "'kern' Horizontal Kerning in Latin lookup 0" { "'kern' Horizontal Kerning in Latin lookup 0-1" [150,0,4] } ['kern' ('DFLT' <'dflt' > 'latn' <'dflt' > ) ]
MarkAttachClasses: 1
DEI: 91125
KernClass2: 20 20 "'kern' Horizontal Kerning in Latin lookup 0-1"
 1 A
 1 K
 1 L
 1 O
 1 R
 1 S
 1 T
 1 U
 1 Y
 1 f
 1 k
 1 r
 1 t
 1 y
 1 z
 6 period
 1 J
 1 o
 3 V W
 1 O
 1 S
 1 T
 1 U
 1 Y
 1 o
 1 t
 1 u
 1 y
 1 z
 1 A
 1 Z
 7 f fi fl
 6 period
 1 a
 1 s
 1 i
 1 l
 1 r

StartChar: A
Encoding: 65 65 0
Width: 721
Flags: HW
HStem: 0 26<18 72.4877 180.351 255 442 503.62 646.696 703> 262 41<232 435>
LayerCount: 2
Fore
SplineSet
18 0 m 1
 18 26 l 1
 89 26 104 61 139 160 c 2
 281 558 l 2
 299 609 303 643 303 682 c 1
 327 695 345 707 361 726 c 1
 378 726 l 1
 612 86 l 2
 622 59 638 26 703 26 c 1
 703 0 l 1
 442 0 l 1
 442 26 l 1
 472 26 512 26 512 60 c 0
 512 82 450 262 450 262 c 1
 218 262 l 1
 195 191 163 106 163 81 c 0
 163 39 182 26 255 26 c 1
 255 0 l 1
 18 0 l 1
232 303 m 1
 435 303 l 1
 330 597 l 1
 232 303 l 1
EndSplineSet
EndChar

StartChar: B
Encoding: 66 66 1
Width: 606
Flags: W
HStem: 0 42<239.209 402.434> 0 25<36 105.289> 340 45<224 348.689 354 397.684> 665 35<224 351.058> 674 26<36 104.456>
VStem: 124 100<56.076 340 385 662.714> 412 100<469.569 616.806> 472 100<107.45 277.147>
LayerCount: 2
Fore
SplineSet
36 0 m 1x65
 36 25 l 1
 100 25 124 31 124 96 c 2
 124 607 l 2
 124 659 108 674 36 674 c 1
 36 700 l 1x6d
 261 700 l 2
 409 700 512 658 512 544 c 0x36
 512 469 457 406 354 379 c 1
 477 373 572 311 572 198 c 0
 572 75 502 0 292 0 c 2xb5
 36 0 l 1x65
262 665 m 2x36
 224 665 l 1
 224 385 l 1
 256 385 l 2
 376 385 412 457 412 539 c 0
 412 615 376 665 262 665 c 2x36
224 340 m 1
 224 120 l 2
 224 48 261 42 306 42 c 0
 421 42 472 103 472 193 c 0xa5
 472 292 414 340 272 340 c 2
 224 340 l 1
EndSplineSet
EndChar

StartChar: C
Encoding: 67 67 2
Width: 726
Flags: HW
HStem: -11 43<350.251 552.761> 667 43<342.823 558.945>
VStem: 58 110<230.637 471.37> 657 22<156.439 188.591 519 550.769>
LayerCount: 2
Fore
SplineSet
676 519 m 1
 656 519 l 1
 642 576 608 667 445 667 c 0
 280 667 168 529 168 358 c 0
 168 175 287 32 452 32 c 0
 601 32 645 136 657 192 c 1
 679 187 l 1
 657 42 l 1
 657 42 563 -11 430 -11 c 0
 205 -11 58 146 58 348 c 0
 58 545 210 710 439 710 c 0
 559 710 666 660 666 660 c 1
 676 519 l 1
EndSplineSet
EndChar

StartChar: D
Encoding: 68 68 3
Width: 778
Flags: W
HStem: 0 42<245.625 446.854> 0 26<36 105.289> 665 35<224 392.587> 674 26<36 104.456>
VStem: 124 100<62.2587 662.714> 611 110<231.013 471.355>
LayerCount: 2
Fore
SplineSet
334 42 m 0xac
 520 42 611 175 611 341 c 0
 611 517 517 665 276 665 c 2
 224 665 l 1
 224 157 l 2
 224 57 245 42 334 42 c 0xac
297 0 m 2
 36 0 l 1
 36 26 l 1
 100 26 124 32 124 97 c 2
 124 607 l 2
 124 659 108 674 36 674 c 1
 36 700 l 1x5c
 290 700 l 1
 688 695 721 431 721 361 c 0
 721 147 567 0 297 0 c 2
EndSplineSet
EndChar

StartChar: E
Encoding: 69 69 4
Width: 610
Flags: W
HStem: 0 42<239.18 491.875> 0 26<36 105.289> 340 45<224 421.509> 665 35<224 446.008> 674 26<36 104.456>
VStem: 124 100<57.0471 340 385 662.714> 441 26<242 310.034 416.29 469> 504 21<545 596.845> 570 24<137.988 161.042>
LayerCount: 2
Fore
SplineSet
552 0 m 1x6780
 36 0 l 1
 36 26 l 1
 100 26 124 32 124 97 c 2
 124 607 l 2
 124 659 108 674 36 674 c 1
 36 700 l 1
 525 700 l 1x6f80
 525 545 l 1
 504 545 l 1
 499 617 472 665 342 665 c 2
 224 665 l 1
 224 385 l 1
 356 385 l 2
 410 385 439 402 439 469 c 1
 466 469 l 1
 467 242 l 1
 441 242 l 1
 441 318 423 340 332 340 c 2
 224 340 l 1
 224 134 l 2
 224 42 250 42 357 42 c 0xb780
 480 42 531 58 570 166 c 1
 594 159 l 1
 552 0 l 1x6780
EndSplineSet
EndChar

StartChar: F
Encoding: 70 70 5
Width: 555
Flags: HW
HStem: 0 26<36 105.289 243.394 311> 340 45<224 421.509> 665 35<224 446.008> 674 26<36 104.456>
VStem: 124 100<37.5783 340 385 662.714> 441 26<242 310.034 416.29 469> 504 21<545 596.845>
LayerCount: 2
Fore
SplineSet
311 0 m 1xee
 36 0 l 1
 36 26 l 1
 100 26 124 32 124 97 c 2
 124 607 l 2
 124 659 108 674 36 674 c 1
 36 700 l 1
 525 700 l 1xde
 525 545 l 1
 504 545 l 1
 499 617 472 665 342 665 c 2
 224 665 l 1
 224 385 l 1
 356 385 l 2
 410 385 439 402 439 469 c 1
 466 469 l 1
 467 242 l 1
 441 242 l 1
 441 318 423 340 332 340 c 2
 224 340 l 1
 224 107 l 2
 224 38 240 26 311 26 c 1
 311 0 l 1xee
EndSplineSet
EndChar

StartChar: G
Encoding: 71 71 6
Width: 785
Flags: HW
HStem: -12 43<345.648 570.434> 275 25<496 562.71 703.476 765> 668 43<335.689 559.952>
VStem: 58 110<229.215 475.389> 582 96<79 259.593> 673 23<508 539.622>
LayerCount: 2
Fore
SplineSet
680 658 m 1xf8
 696 508 l 1
 673 507 l 1xf4
 643 631 551 668 441 668 c 0
 280 668 168 539 168 358 c 0
 168 186 269 31 447 31 c 0
 499 31 567 44 582 59 c 1
 582 203 l 2
 582 257 579 271 496 275 c 1
 496 300 l 1
 765 300 l 1
 765 275 l 1
 680 275 678 239 678 185 c 2
 678 79 l 1
 694 62 l 1
 694 43 l 1
 624 18 533 -12 425 -12 c 0
 183 -12 58 146 58 348 c 0
 58 576 235 711 435 711 c 0
 537 711 630 675 680 658 c 1xf8
EndSplineSet
EndChar

StartChar: H
Encoding: 72 72 7
Width: 841
Flags: W
HStem: 0 26<36 105.289 242.711 312 529 598.289 735.711 805> 340 45<224 617> 674 26<36 104.456 243.544 312 529 597.456 736.544 805>
VStem: 124 100<36.2463 340 385 662.714> 617 100<36.2463 340 385 662.714>
LayerCount: 2
Fore
SplineSet
805 0 m 1
 529 0 l 1
 529 26 l 1
 593 26 617 32 617 97 c 2
 617 340 l 1
 224 340 l 1
 224 97 l 2
 224 32 248 26 312 26 c 1
 312 0 l 1
 36 0 l 1
 36 26 l 1
 100 26 124 32 124 97 c 2
 124 607 l 2
 124 659 108 674 36 674 c 1
 36 700 l 1
 312 700 l 1
 312 674 l 1
 240 674 224 659 224 607 c 2
 224 385 l 1
 617 385 l 1
 617 607 l 2
 617 659 601 674 529 674 c 1
 529 700 l 1
 805 700 l 1
 805 674 l 1
 733 674 717 659 717 607 c 2
 717 97 l 2
 717 32 741 26 805 26 c 1
 805 0 l 1
EndSplineSet
EndChar

StartChar: I
Encoding: 73 73 8
Width: 348
Flags: HW
HStem: 0 26<36 105.289 242.711 312> 674 26<36 104.456 243.544 312>
VStem: 124 100<36.2463 662.714>
LayerCount: 2
Fore
SplineSet
224 607 m 2
 224 97 l 2
 224 32 248 26 312 26 c 1
 312 0 l 1
 36 0 l 1
 36 26 l 1
 100 26 124 32 124 97 c 2
 124 607 l 2
 124 659 108 674 36 674 c 1
 36 700 l 1
 312 700 l 1
 312 674 l 1
 240 674 224 659 224 607 c 2
EndSplineSet
EndChar

StartChar: J
Encoding: 74 74 9
Width: 348
Flags: HW
HStem: -235 36<6.4693 86.3556> 674 26<36 104.456 243.544 312>
VStem: 124 100<-94.1904 662.714>
LayerCount: 2
Fore
SplineSet
224 50 m 2
 224 -170 121 -235 19 -235 c 0
 -31 -235 -83 -213 -83 -163 c 0
 -83 -141 -67 -122 -45 -122 c 0
 9 -122 -19 -199 42 -199 c 0
 120 -199 124 -102 124 0 c 2
 124 607 l 2
 124 659 108 674 36 674 c 1
 36 700 l 1
 312 700 l 1
 312 674 l 1
 240 674 224 659 224 607 c 2
 224 50 l 2
EndSplineSet
EndChar

StartChar: K
Encoding: 75 75 10
Width: 730
Flags: W
HStem: 0 26<36 105.289 242.711 312 650.687 700> 674 26<36 104.456 243.544 312 433 488.448 596.186 657>
VStem: 124 100<36.2463 662.714>
LayerCount: 2
Fore
SplineSet
224 340 m 1
 471 613 l 2
 475 617 492 637 492 651 c 0
 492 671 461 674 433 674 c 1
 433 700 l 1
 657 700 l 1
 657 674 l 1
 579 674 520 610 502 591 c 2
 314 385 l 1
 561 116 l 2
 620 51 657 26 700 26 c 1
 700 0 l 1
 539 0 l 1
 224 340 l 1
224 340 m 1
 224 97 l 2
 224 32 248 26 312 26 c 1
 312 0 l 1
 36 0 l 1
 36 26 l 1
 100 26 124 32 124 97 c 2
 124 607 l 2
 124 659 108 674 36 674 c 1
 36 700 l 1
 312 700 l 1
 312 674 l 1
 240 674 224 659 224 607 c 2
 224 340 l 1
EndSplineSet
EndChar

StartChar: L
Encoding: 76 76 11
Width: 610
Flags: HW
HStem: 0 42<245.132 491.875> 0 26<36 105.289> 674 26<36 104.456 243.544 312>
VStem: 124 100<62.7481 662.714> 570 24<137.988 161.042>
LayerCount: 2
Fore
SplineSet
36 0 m 1x78
 36 26 l 1x78
 100 26 124 32 124 97 c 2
 124 607 l 2
 124 659 108 674 36 674 c 1
 36 700 l 1
 312 700 l 1
 312 674 l 1
 240 674 224 659 224 607 c 2
 224 144 l 2
 224 52 250 42 357 42 c 0xb8
 480 42 531 58 570 166 c 1
 594 159 l 1
 552 0 l 1
 36 0 l 1x78
EndSplineSet
EndChar

StartChar: M
Encoding: 77 77 12
Width: 999
Flags: W
HStem: -10 21G<459.373 502.267> 0 26<25 75.8125 236.899 291 669 728.281 912.517 974> 674 26<66 126.735 881.15 947>
VStem: 152 46<367.688 548.727> 765 96<182.75 577> 769 100<55.4985 559.25>
LayerCount: 2
Fore
SplineSet
25 0 m 1x78
 25 26 l 1
 106 39 131 64 136 141 c 2
 152 544 l 1
 152 646 146 674 66 674 c 1
 66 700 l 1
 244 700 l 1
 512 146 l 1
 779 700 l 1
 947 700 l 1
 947 674 l 1
 866 674 861 642 861 622 c 2x78
 869 120 l 2
 870 87 879 26 974 26 c 1
 974 0 l 1
 669 0 l 1
 669 26 l 1
 742 31 767 56 769 105 c 2x74
 765 577 l 1
 493 -10 l 1
 469 -10 l 1xb8
 198 553 l 1
 189 137 l 2
 189 71 212 32 291 26 c 1
 291 0 l 1
 25 0 l 1x78
EndSplineSet
EndChar

StartChar: N
Encoding: 78 78 13
Width: 845
Flags: HW
HStem: -10 21G<681.293 722> 0 26<36 103.252 229.748 297> 674 26<36 86.6646 569 639.506 759.494 830>
VStem: 136 61<46.15 557> 677 45<162 651.398>
LayerCount: 2
Fore
SplineSet
677 603 m 2x78
 677 653 633 674 569 674 c 1
 569 700 l 1
 830 700 l 1
 830 674 l 1
 766 674 722 653 722 603 c 2
 722 -10 l 1
 699 -10 l 1xb8
 197 557 l 1
 197 97 l 2
 197 47 233 26 297 26 c 1
 297 0 l 1
 36 0 l 1
 36 26 l 1
 100 26 136 47 136 97 c 2
 136 586 l 2
 136 610 108 674 36 674 c 1
 36 700 l 1
 191 700 l 1
 677 162 l 1
 677 603 l 2x78
EndSplineSet
EndChar

StartChar: O
Encoding: 79 79 14
Width: 830
Flags: HW
HStem: -12 43<329.375 507.553> 667 43<317.884 506.483>
VStem: 58 110<226.939 471.062> 662 110<232.762 469.863>
LayerCount: 2
Fore
SplineSet
58 348 m 0
 58 545 203 710 400 710 c 0
 597 710 772 554 772 357 c 0
 772 159 618 -12 420 -12 c 0
 220 -12 58 148 58 348 c 0
406 667 m 0
 253 667 168 511 168 358 c 0
 168 193 263 31 414 31 c 0
 583 31 662 194 662 347 c 0
 662 517 576 667 406 667 c 0
EndSplineSet
EndChar

StartChar: P
Encoding: 80 80 15
Width: 566
Flags: HW
HStem: 0 26<36 105.289 243.394 311> 305 30<266 353.014> 667 33<224.515 333.512> 674 26<36 104.456>
VStem: 124 100<37.5783 662.714> 422 110<415.82 589.687>
LayerCount: 2
Fore
SplineSet
224 665 m 1xec
 224 107 l 2
 224 38 240 26 311 26 c 1
 311 0 l 1
 36 0 l 1
 36 26 l 1
 100 26 124 32 124 97 c 2
 124 607 l 2
 124 659 108 674 36 674 c 1
 36 700 l 1xdc
 288 700 l 2
 410 700 532 637 532 502 c 0
 532 382 422 305 306 305 c 0
 290 305 281 306 265 307 c 1
 266 336 l 1
 274 335 279 335 287 335 c 0
 369 335 422 386 422 492 c 0
 422 612 353 667 258 667 c 0
 245 667 235 667 224 665 c 1xec
EndSplineSet
EndChar

StartChar: Q
Encoding: 81 81 16
Width: 830
Flags: HW
HStem: -235 66<660.5 767.072> 667 43<317.884 506.483>
VStem: 58 110<229.019 471.062> 662 110<233.517 469.863>
LayerCount: 2
Fore
SplineSet
525 5 m 1
 525 5 700 -169 752 -169 c 0
 766 -169 777 -166 788 -162 c 1
 802 -177 l 1
 786 -208 742 -235 694 -235 c 0
 627 -235 454 -39 398 -11 c 1
 208 0 58 155 58 348 c 0
 58 545 203 710 400 710 c 0
 597 710 772 554 772 357 c 0
 772 196 670 53 525 5 c 1
406 667 m 0
 253 667 168 511 168 358 c 0
 168 193 263 31 414 31 c 0
 583 31 662 194 662 347 c 0
 662 517 576 667 406 667 c 0
EndSplineSet
EndChar

StartChar: R
Encoding: 82 82 17
Width: 724
Flags: HW
HStem: 0 26<36 105.289 243.394 311 649.537 694> 340 45<224 302> 665 35<224 357.021> 674 26<36 104.456>
VStem: 124 100<37.5783 340 385 662.714> 435 110<444.629 599.638>
LayerCount: 2
Fore
SplineSet
301 342 m 1025xcc
243 665 m 2xec
 224 665 l 1
 224 385 l 1
 256 385 l 2
 376 385 435 427 435 509 c 0
 435 624 376 665 243 665 c 2xec
224 340 m 1
 224 107 l 2
 224 38 240 26 311 26 c 1
 311 0 l 1
 36 0 l 1
 36 26 l 1
 100 26 124 32 124 97 c 2
 124 607 l 2
 124 659 108 674 36 674 c 1
 36 700 l 1xdc
 288 700 l 2
 410 700 545 654 545 519 c 0
 545 438 483 385 399 359 c 1
 566 116 l 2
 598 70 651 26 694 26 c 1
 694 0 l 1
 533 0 l 1
 302 340 l 1
 224 340 l 1
EndSplineSet
EndChar

StartChar: S
Encoding: 83 83 18
Width: 483
Flags: HW
HStem: -11 42<144.792 292.932> 668 42<191.504 322.54>
VStem: 40 24<140.676 172> 61 82<487.15 612.223> 354 89<111.175 228.376> 379 24<563 593.485>
LayerCount: 2
Fore
SplineSet
214 -11 m 0xd8
 152 -11 103 6 60 27 c 1
 40 172 l 1
 64 172 l 1
 90 84 139 31 222 31 c 0
 298 31 354 87 354 163 c 0xe8
 354 324 61 300 61 519 c 0
 61 649 163 710 251 710 c 0
 332 710 340 704 385 697 c 1
 403 563 l 1
 379 563 l 1xd4
 362 619 323 668 257 668 c 0
 193 668 143 619 143 555 c 0
 143 374 443 414 443 202 c 0
 443 79 337 -11 214 -11 c 0xd8
EndSplineSet
EndChar

StartChar: T
Encoding: 84 84 19
Width: 694
Flags: HW
HStem: 0 26<210 279.289 416.711 486> 656 44<85.125 298 398 607.889>
VStem: 33 27<571 619.986> 298 100<36.2463 656> 624 27<571 630.904>
LayerCount: 2
Fore
SplineSet
398 97 m 2
 398 32 422 26 486 26 c 1
 486 0 l 1
 210 0 l 1
 210 26 l 1
 274 26 298 32 298 97 c 2
 298 656 l 1
 180 656 l 2
 79 656 68 629 60 571 c 1
 33 571 l 1
 43 726 l 1
 65 726 l 1
 65 726 65 700 130 700 c 2
 566 700 l 2
 631 700 639 726 639 726 c 1
 661 726 l 1
 651 571 l 1
 624 571 l 1
 624 639 606 656 516 656 c 2
 398 656 l 1
 398 97 l 2
EndSplineSet
EndChar

StartChar: U
Encoding: 85 85 20
Width: 780
Flags: HW
HStem: -10 43<319.078 501.039> 674 26<36 104.456 243.544 312 494 565.628 672.722 744>
VStem: 124 100<138.869 662.714> 589 60<129.641 660>
LayerCount: 2
Fore
SplineSet
124 607 m 2
 124 659 108 674 36 674 c 1
 36 700 l 1
 312 700 l 1
 312 674 l 1
 240 674 224 659 224 607 c 2
 224 276 l 2
 224 104 289 33 413 33 c 0
 551 33 589 142 589 240 c 2
 589 607 l 2
 589 659 566 674 494 674 c 1
 494 700 l 1
 744 700 l 1
 744 674 l 1
 672 674 650 659 649 607 c 2
 649 260 l 2
 649 51 538 -10 391 -10 c 0
 249 -10 124 45 124 256 c 2
 124 607 l 2
EndSplineSet
EndChar

StartChar: V
Encoding: 86 86 21
Width: 775
Flags: HW
HStem: -10 21G<368.156 422.878> 674 26<36 88.1595 238.336 301 529 591.275 699.557 739>
LayerCount: 2
Fore
SplineSet
36 700 m 1
 301 700 l 1
 301 674 l 1
 282 674 231 669 231 650 c 0
 231 645 232 640 235 632 c 2
 425 129 l 1
 603 598 l 2
 606 606 612 623 612 639 c 0
 612 664 550 674 529 674 c 1
 529 700 l 1
 739 700 l 1
 739 674 l 1
 704 673 674 647 660 612 c 2
 415 -10 l 1
 376 -10 l 1
 134 607 l 2
 118 647 86 674 36 674 c 1
 36 700 l 1
EndSplineSet
EndChar

StartChar: W
Encoding: 87 87 22
Width: 1080
Flags: HW
HStem: -10 21G<368.156 424.32 672.224 727.878> 674 26<36 88.1595 238.336 301 325 372.827 511.443 550 574 636.275 744.557 784 834 896.275 1004.56 1044>
LayerCount: 2
Fore
SplineSet
36 700 m 1
 301 700 l 1
 301 674 l 1
 282 674 231 669 231 650 c 0
 231 645 232 640 235 632 c 2
 436 129 l 1
 530 336 l 1
 411 607 l 2
 395 647 375 674 325 674 c 1
 325 700 l 1
 550 700 l 1
 550 674 l 1
 531 674 508 669 508 650 c 0
 508 645 509 640 512 632 c 2
 586 461 l 1
 648 598 l 2
 651 606 657 623 657 639 c 0
 657 664 595 674 574 674 c 1
 574 700 l 1
 784 700 l 1
 784 674 l 1
 749 673 719 647 705 612 c 2
 609 407 l 1
 730 129 l 1
 908 598 l 2
 911 606 917 623 917 639 c 0
 917 664 855 674 834 674 c 1
 834 700 l 1
 1044 700 l 1
 1044 674 l 1
 1009 673 979 647 965 612 c 2
 720 -10 l 1
 681 -10 l 1
 552 284 l 1
 415 -10 l 1
 376 -10 l 1
 134 607 l 2
 118 647 86 674 36 674 c 1
 36 700 l 1
EndSplineSet
EndChar

StartChar: X
Encoding: 88 88 23
Width: 789
Flags: HW
HStem: 0 26<36 90.0345 203.49 272 494 548.612 704.87 753> 674 26<36 89.7338 253.736 311 496 552.19 675.918 733>
LayerCount: 2
Fore
SplineSet
36 700 m 1
 311 700 l 1
 311 674 l 1
 286 674 243 665 243 647 c 0
 243 641 248 633 251 629 c 2
 405 422 l 1
 544 602 l 2
 551 611 560 625 560 642 c 0
 560 670 527 674 496 674 c 1
 496 700 l 1
 733 700 l 1
 733 674 l 1
 673 674 624 633 608 612 c 2
 434 382 l 1
 662 76 l 2
 667 70 698 26 753 26 c 1
 753 0 l 1
 494 0 l 1
 494 26 l 1
 531 26 550 28 550 46 c 0
 550 62 527 92 527 92 c 1
 373 301 l 1
 225 106 l 1
 225 106 196 71 196 53 c 0
 196 32 230 26 272 26 c 1
 272 0 l 1
 36 0 l 1
 36 26 l 1
 61 26 104 30 158 100 c 2
 343 341 l 1
 140 617 l 2
 119 646 84 674 36 674 c 1
 36 700 l 1
EndSplineSet
EndChar

StartChar: Y
Encoding: 89 89 24
Width: 742
Flags: HW
HStem: 0 26<250 319.289 457.097 526> 674 26<36 90.7435 243.388 299 509 573.553 669.521 706>
VStem: 338 100<36.2463 341>
LayerCount: 2
Fore
SplineSet
438 97 m 2
 439 32 462 26 526 26 c 1
 526 0 l 1
 250 0 l 1
 250 26 l 1
 314 26 338 32 338 97 c 2
 337 341 l 1
 128 629 l 2
 112 651 83 674 36 674 c 1
 36 700 l 1
 299 700 l 1
 299 674 l 1
 275 674 240 673 240 651 c 0
 240 643 245 632 245 632 c 1
 414 395 l 1
 568 607 l 1
 568 607 582 627 582 642 c 0
 582 673 542 674 509 674 c 1
 509 700 l 1
 706 700 l 1
 706 674 l 1
 686 674 662 661 640 632 c 2
 435 356 l 1
 438 97 l 2
EndSplineSet
EndChar

StartChar: Z
Encoding: 90 90 25
Width: 624
Flags: HW
HStem: 0 55<137 511.897> 658 42<80.3342 453>
VStem: 25 27<571 620.067> 575 24<138.31 161.042>
LayerCount: 2
Fore
SplineSet
172 658 m 2
 71 656 60 629 52 571 c 1
 25 571 l 1
 35 726 l 1
 57 726 l 1
 57 726 57 700 122 700 c 2
 567 700 l 1
 567 658 l 1
 137 55 l 1
 362 55 l 2
 485 55 536 58 575 166 c 1
 599 159 l 1
 557 0 l 1
 27 0 l 1
 27 55 l 1
 453 658 l 1
 172 658 l 2
EndSplineSet
EndChar

StartChar: a
Encoding: 97 97 27
Width: 481
Flags: W
HStem: -10 55<144.611 234.616 349.5 433.229> 408 52<185.152 277.338>
VStem: 40 85<65.0711 153.506> 299 85<88.6912 232 265.061 384.805>
LayerCount: 2
Fore
SplineSet
255 460 m 0
 379 460 384 350 384 350 c 1
 384 92 l 2
 384 70 388 50 418 50 c 0
 433 50 442 53 454 63 c 1
 466 45 l 1
 445 16 412 -10 368 -10 c 0
 331 -10 302 16 302 62 c 1
 273 34 220 -10 153 -10 c 0
 99 -10 40 39 40 93 c 0
 40 214 264 255 299 273 c 1
 299 322 l 2
 299 354 293 408 210 408 c 0
 109 408 155 298 78 298 c 0
 64 298 52 300 52 314 c 0
 52 408 242 460 255 460 c 0
299 232 m 1
 284 226 125 199 125 116 c 0
 125 76 155 45 195 45 c 0
 241 45 285 93 299 114 c 1
 299 232 l 1
EndSplineSet
EndChar

StartChar: b
Encoding: 98 98 28
Width: 537
Flags: W
HStem: -10 42<199.27 337.755> 0 21G<66 92> 408 52<223.444 337.601> 699 17<20 41.2029>
VStem: 77 85<66.5143 365.994 392 680.965> 407 85<141.663 326.524>
LayerCount: 2
Fore
SplineSet
307 460 m 0x7c
 419 460 492 360 492 239 c 0
 492 112 384 -10 249 -10 c 0xbc
 166 -10 144 14 115 14 c 0
 102 14 94 5 90 0 c 1
 66 0 l 1
 66 0 77 76 77 145 c 2
 77 628 l 2
 77 686 25 699 20 699 c 1
 20 716 l 1
 65 725 113 746 135 765 c 1
 162 765 l 1
 162 392 l 1
 210 433 243 460 307 460 c 0x7c
271 408 m 0
 229 408 179 367 162 343 c 1
 162 134 l 2
 162 67 205 32 268 32 c 0
 365 32 407 124 407 221 c 0
 407 314 364 408 271 408 c 0
EndSplineSet
EndChar

StartChar: c
Encoding: 99 99 29
Width: 461
Flags: HW
HStem: -10 73<203.225 330.349> 418 42<195.555 314.924>
VStem: 45 85<144.003 313.135>
LayerCount: 2
Fore
SplineSet
293 460 m 0
 349 460 420 445 420 389 c 0
 420 367 406 347 384 347 c 0
 338 347 333 418 252 418 c 0
 169 418 130 335 130 244 c 0
 130 131 192 63 281 63 c 0
 345 63 379 86 415 116 c 1
 431 100 l 1
 420 75 344 -10 245 -10 c 0
 129 -10 45 86 45 210 c 0
 45 348 155 460 293 460 c 0
EndSplineSet
EndChar

StartChar: d
Encoding: 100 100 30
Width: 556
Flags: W
HStem: -10 52<205.4 319.079> 32 21<496.883 536> 418 42<207.299 343.307> 699 17<325 346.203>
VStem: 45 85<134.11 303.571> 382 85<89.4055 379.706 442 680.965>
LayerCount: 2
Fore
SplineSet
467 92 m 2xbc
 467 53 478 53 536 53 c 1
 536 32 l 1x7c
 468 18 418 -10 397 -10 c 0
 393 -10 389 -5 389 7 c 0
 389 26 392 61 392 67 c 1
 358 28 299 -10 233 -10 c 0
 111 -10 45 89 45 202 c 0
 45 348 164 460 302 460 c 0
 335 460 365 448 382 442 c 1
 382 628 l 2
 382 686 330 699 325 699 c 1
 325 716 l 1
 370 725 418 746 440 765 c 1
 467 765 l 1
 467 92 l 2xbc
382 325 m 2
 382 336 367 418 281 418 c 0
 189 418 130 341 130 242 c 0
 130 128 193 42 267 42 c 0xbc
 335 42 382 108 382 133 c 2
 382 325 l 2
EndSplineSet
EndChar

StartChar: e
Encoding: 101 101 31
Width: 461
Flags: W
HStem: -10 73<203.225 330.349> 281 36<139 353> 418 42<193.998 321.393>
VStem: 45 85<144.003 279.669> 353 75<300 383.709>
LayerCount: 2
Fore
SplineSet
139 317 m 1
 339 317 l 2
 353 317 353 321 353 332 c 0
 353 379 319 418 257 418 c 0
 199 418 156 372 139 317 c 1
132 281 m 1
 131 269 130 257 130 244 c 0
 130 131 192 63 281 63 c 0
 345 63 379 86 415 116 c 1
 431 100 l 1
 420 75 344 -10 245 -10 c 0
 129 -10 45 86 45 210 c 0
 45 388 186 460 267 460 c 0
 362 460 428 386 428 308 c 0
 428 292 421 281 404 281 c 2
 132 281 l 1
EndSplineSet
EndChar

StartChar: f
Encoding: 102 102 32
Width: 344
Flags: W
HStem: 0 26<32 94.4845 204.515 267> 402 49<191 317> 696 69<241.997 331.21>
VStem: 107 84<32.5242 402 460 590.484>
LayerCount: 2
Fore
SplineSet
192 97 m 2
 192 32 203 26 267 26 c 1
 267 0 l 1
 32 0 l 1
 32 26 l 1
 96 26 107 32 107 97 c 2
 107 402 l 1
 41 402 l 1
 41 426 l 1
 107 460 l 1
 107 640 212 765 314 765 c 0
 337 765 354 744 354 721 c 0
 354 701 343 670 323 670 c 0
 297 670 300 696 257 696 c 0
 194 696 191 601 191 451 c 1
 317 451 l 1
 317 402 l 5
 191 402 l 1
 192 97 l 2
EndSplineSet
EndChar

StartChar: g
Encoding: 103 103 33
Width: 515
Flags: W
HStem: -235 36<163.219 329.366> 0 70<169.375 402.196> 150 36<200.861 299.432> 386 46<406 495> 424 36<187.942 293.7>
VStem: 40 75<-158.802 -53.6322> 66 85<235.658 381.197> 74 87<78.4734 137.12> 341 85<235.519 380.57> 426 67<-111.955 -22.9348>
LayerCount: 2
Fore
SplineSet
248 460 m 0xea
 316 460 331 446 401 432 c 1
 495 432 l 1
 495 385 l 1
 406 386 l 1
 420 368 426 345 426 316 c 0
 426 228 356 150 244 150 c 0
 222 150 196 154 181 159 c 1
 165 145 161 137 161 114 c 0xf180
 161 83 186 70 222 70 c 2
 376 70 l 2
 428 70 493 51 493 -43 c 0
 493 -145 357 -235 229 -235 c 0
 101 -235 40 -191 40 -110 c 0xf440
 40 -70 69 -26 151 0 c 1xf2
 96 16 74 59 74 104 c 0xf1
 74 111 77 123 81 133 c 1
 149 173 l 1
 90 202 66 247 66 307 c 0
 66 401 154 460 248 460 c 0xea
239 424 m 0xea80
 182 424 151 373 151 316 c 0
 151 252 189 186 253 186 c 0
 311 186 341 249 341 307 c 0
 341 369 301 424 239 424 c 0xea80
289 0 m 0
 202 0 115 -5 115 -97 c 0
 115 -153 154 -199 239 -199 c 0
 326 -199 426 -151 426 -76 c 0xe440
 426 -34 413 0 289 0 c 0
EndSplineSet
EndChar

StartChar: h
Encoding: 104 104 34
Width: 610
Flags: W
HStem: 0 26<40 102.485 212.515 275 330 392.485 502.902 565> 395 65<293.158 383.611> 699 17<58 79.2029>
VStem: 115 85<31.9056 353.801 386 680.965> 405 85<32.5242 372.25>
LayerCount: 2
Fore
SplineSet
200 97 m 2
 200 32 211 26 275 26 c 1
 275 0 l 1
 40 0 l 1
 40 26 l 1
 104 26 115 32 115 97 c 2
 115 628 l 2
 115 686 63 699 58 699 c 1
 58 716 l 1
 103 725 151 746 173 765 c 1
 200 765 l 1
 200 386 l 1
 224 401 311 460 370 460 c 0
 447 460 490 412 490 300 c 2
 490 97 l 2
 491 32 501 26 565 26 c 1
 565 0 l 1
 330 0 l 1
 330 26 l 1
 394 26 405 32 405 97 c 2
 405 306 l 2
 405 376 368 395 319 395 c 0
 271 395 231 360 200 338 c 1
 200 97 l 2
EndSplineSet
EndChar

StartChar: i
Encoding: 105 105 35
Width: 315
Flags: W
HStem: 0 26<40 102.485 212.515 275> 394 17<58 79.2029> 440 20G<162 200> 606 110<110.857 203.143>
VStem: 102 110<614.857 707.143> 115 85<31.9056 375.965>
LayerCount: 2
Fore
SplineSet
200 97 m 2xf4
 200 32 211 26 275 26 c 1
 275 0 l 1
 40 0 l 1
 40 26 l 1
 104 26 115 32 115 97 c 2
 115 323 l 2
 115 381 63 394 58 394 c 1
 58 411 l 1
 103 420 151 441 173 460 c 1
 200 460 l 1
 200 97 l 2xf4
157 716 m 0
 192 716 212 696 212 661 c 0
 212 626 192 606 157 606 c 0
 122 606 102 626 102 661 c 0xf8
 102 696 122 716 157 716 c 0
EndSplineSet
EndChar

StartChar: j
Encoding: 106 106 36
Width: 315
Flags: W
HStem: 394 17<58 79.2029> 440 20G<162 200> 606 110<110.857 203.143>
VStem: 102 110<614.857 707.143> 115 85<-141.335 375.965>
LayerCount: 2
Fore
SplineSet
200 -45 m 2xe8
 200 -110 181 -199 37 -240 c 1
 29 -205 l 1
 106 -176 115 -140 115 -75 c 2
 115 323 l 2
 115 381 63 394 58 394 c 1
 58 411 l 1
 103 420 151 441 173 460 c 1
 200 460 l 1
 200 -45 l 2xe8
157 716 m 0
 192 716 212 696 212 661 c 0
 212 626 192 606 157 606 c 0
 122 606 102 626 102 661 c 0xf0
 102 696 122 716 157 716 c 0
EndSplineSet
EndChar

StartChar: k
Encoding: 107 107 37
Width: 558
Flags: W
HStem: 0 26<40 102.485 212.515 275 492.91 543> 214 36<200 219> 425 26<339 388.329 477.771 536> 699 17<58 79.2029>
VStem: 115 85<31.9056 214 250 680.965>
LayerCount: 2
Fore
SplineSet
200 97 m 2
 200 32 211 26 275 26 c 1
 275 0 l 1
 40 0 l 1
 40 26 l 1
 104 26 115 32 115 97 c 2
 115 628 l 2
 115 686 63 699 58 699 c 1
 58 716 l 1
 103 725 151 746 173 765 c 1
 200 765 l 1
 200 250 l 1
 211 250 l 2
 219 250 228 250 238 260 c 2
 376 382 l 6
 389 394 390 399 390 406 c 4
 390 423 360 425 339 425 c 5
 339 451 l 5
 536 451 l 5
 536 425 l 5
 486 425 450 398 440 389 c 6
 290 258 l 1
 464 61 l 2
 485 37 518 26 543 26 c 1
 543 0 l 1
 398 0 l 1
 219 214 l 1
 200 214 l 1
 200 97 l 2
EndSplineSet
EndChar

StartChar: l
Encoding: 108 108 38
Width: 315
Flags: W
HStem: 0 26<40 102.485 212.515 275> 699 17<58 79.2029>
VStem: 115 85<31.9056 680.965>
LayerCount: 2
Fore
SplineSet
200 97 m 2
 200 32 211 26 275 26 c 1
 275 0 l 1
 40 0 l 1
 40 26 l 1
 104 26 115 32 115 97 c 2
 115 628 l 2
 115 686 63 699 58 699 c 1
 58 716 l 1
 103 725 151 746 173 765 c 1
 200 765 l 1
 200 97 l 2
EndSplineSet
EndChar

StartChar: m
Encoding: 109 109 39
Width: 870
Flags: W
HStem: 0 26<50 112.485 222.515 285 328 390.485 500.902 563 610 672.485 782.902 845> 394 17<68 89.2029> 395 65<294.717 381.706 568.852 663.611>
VStem: 125 85<31.9056 354.938> 403 85<32.5242 349.295> 685 85<32.5242 372.25>
LayerCount: 2
Fore
SplineSet
210 97 m 2xbc
 210 32 221 26 285 26 c 1
 285 0 l 1
 50 0 l 1
 50 26 l 1
 114 26 125 32 125 97 c 2
 125 323 l 2
 125 381 73 394 68 394 c 1
 68 411 l 1xdc
 113 420 161 441 183 460 c 1
 210 460 l 1
 210 386 l 1
 234 401 309 460 368 460 c 0
 420 460 457 438 475 390 c 1
 507 409 595 460 650 460 c 0
 727 460 770 412 770 300 c 2
 770 97 l 2
 771 32 781 26 845 26 c 1
 845 0 l 1
 610 0 l 1
 610 26 l 1
 674 26 685 32 685 97 c 2
 685 306 l 2
 685 376 648 395 599 395 c 0
 558 395 516 371 485 350 c 1
 487 335 488 318 488 300 c 2
 488 97 l 2
 489 32 499 26 563 26 c 1
 563 0 l 1
 328 0 l 1
 328 26 l 1
 392 26 403 32 403 97 c 2
 403 306 l 2
 403 376 366 395 317 395 c 0
 269 395 241 360 210 338 c 1
 210 97 l 2xbc
EndSplineSet
EndChar

StartChar: n
Encoding: 110 110 40
Width: 600
Flags: W
HStem: 0 26<50 112.485 222.515 285 340 402.485 512.902 575> 394 17<68 89.2029> 395 65<303.158 393.611>
VStem: 125 85<31.9056 353.042> 415 85<32.5242 372.25>
LayerCount: 2
Fore
SplineSet
210 97 m 2xb8
 210 32 221 26 285 26 c 1
 285 0 l 1
 50 0 l 1
 50 26 l 1
 114 26 125 32 125 97 c 2
 125 323 l 2
 125 381 73 394 68 394 c 1
 68 411 l 1xd8
 113 420 161 441 183 460 c 1
 210 460 l 1
 210 386 l 1
 234 401 321 460 380 460 c 0
 457 460 500 412 500 300 c 2
 500 97 l 2
 501 32 511 26 575 26 c 1
 575 0 l 1
 340 0 l 1
 340 26 l 1
 404 26 415 32 415 97 c 2
 415 306 l 2
 415 376 378 395 329 395 c 0
 281 395 241 360 210 338 c 1
 210 97 l 2xb8
EndSplineSet
EndChar

StartChar: o
Encoding: 111 111 41
Width: 542
Flags: HW
HStem: -10 42<206.664 341.756> 418 42<201.357 332.541>
VStem: 40 100<123.307 317.528> 408 100<131.276 324.534>
LayerCount: 2
Fore
SplineSet
273 460 m 0
 403 460 508 358 508 228 c 0
 508 98 396 -10 266 -10 c 0
 140 -10 40 92 40 218 c 0
 40 349 142 460 273 460 c 0
266 418 m 0
 170 418 140 324 140 228 c 0
 140 129 174 32 273 32 c 0
 370 32 408 121 408 218 c 0
 408 317 365 418 266 418 c 0
EndSplineSet
EndChar

StartChar: p
Encoding: 112 112 42
Width: 565
Flags: W
HStem: -235 26<30 92.4845 202.515 265> -10 42<226.428 365.755> 394 17<48 69.2029> 408 52<251.444 365.601>
VStem: 105 85<-203.094 8 66.5143 365.168> 435 85<141.663 326.524>
LayerCount: 2
Fore
SplineSet
190 -138 m 2xdc
 190 -203 201 -209 265 -209 c 1
 265 -235 l 1
 30 -235 l 1
 30 -209 l 1
 94 -209 105 -203 105 -138 c 2
 105 323 l 2
 105 381 53 394 48 394 c 1
 48 411 l 1xec
 93 420 141 441 163 460 c 1
 190 460 l 1
 190 392 l 1
 238 433 271 460 335 460 c 0
 447 460 520 360 520 239 c 0
 520 112 412 -10 277 -10 c 0
 227 -10 214 0 190 8 c 1
 190 -138 l 2xdc
299 408 m 0xdc
 257 408 207 367 190 343 c 1
 190 134 l 2
 190 67 233 32 296 32 c 0
 393 32 435 124 435 221 c 0
 435 314 392 408 299 408 c 0xdc
EndSplineSet
EndChar

StartChar: q
Encoding: 113 113 43
Width: 557
Flags: HW
HStem: -235 26<307 369.485 479.515 542> -10 52<205.4 315.534> 418 42<207.299 343.517> 430 20G<441 467>
VStem: 45 85<134.11 303.571> 382 85<-203.094 63 89.4055 379.706>
LayerCount: 2
Fore
SplineSet
382 63 m 1xdc
 348 28 299 -10 233 -10 c 0
 111 -10 45 89 45 202 c 0
 45 348 164 460 302 460 c 0xec
 335 460 357 452 378 442 c 0
 388 437 399 428 412 428 c 0
 435 428 439 450 443 450 c 2
 467 450 l 1
 467 -138 l 2
 467 -203 478 -209 542 -209 c 1
 542 -235 l 1
 307 -235 l 1
 307 -209 l 1
 371 -209 382 -203 382 -138 c 2
 382 63 l 1xdc
382 325 m 2
 382 336 367 418 281 418 c 0
 189 418 130 341 130 242 c 0
 130 128 193 42 267 42 c 0
 335 42 382 108 382 133 c 2
 382 325 l 2
EndSplineSet
EndChar

StartChar: r
Encoding: 114 114 44
Width: 402
Flags: W
HStem: 0 26<40 102.485 212.515 275> 370 90<265.611 354.816> 394 17<58 79.2029>
VStem: 115 85<31.9056 342.703>
LayerCount: 2
Fore
SplineSet
200 97 m 2xd0
 200 32 211 26 275 26 c 1
 275 0 l 1
 40 0 l 1
 40 26 l 1
 104 26 115 32 115 97 c 2
 115 323 l 2
 115 381 63 394 58 394 c 1
 58 411 l 1xb0
 103 420 151 441 173 460 c 1
 200 460 l 1
 200 362 l 1
 233 404 264 460 325 460 c 0
 354 460 382 441 382 407 c 0
 382 379 370 355 339 355 c 0
 318 355 303 370 279 370 c 0
 253 370 212 355 200 299 c 1
 200 97 l 2xd0
EndSplineSet
EndChar

StartChar: s
Encoding: 115 115 45
Width: 406
Flags: W
HStem: -10 42<126.943 253.236> 340 21G<302.5 328> 417 42<147.805 271.274>
VStem: 50 21<110.812 141.333> 51 83<309.346 394.044> 274 82<62.5559 144.378> 307 21<340 368.668>
LayerCount: 2
Fore
SplineSet
180 -10 m 0xec
 132 -10 83 14 62 23 c 1
 50 140 l 1
 71 144 l 1
 87 75 128 32 198 32 c 0
 241 32 274 57 274 100 c 0xf4
 274 194 51 201 51 321 c 0
 51 412 130 459 210 459 c 0
 256 459 285 446 324 434 c 1
 328 340 l 1
 307 340 l 1xea
 298 388 256 417 201 417 c 0
 159 417 134 393 134 360 c 0
 134 246 356 272 356 131 c 0
 356 44 267 -10 180 -10 c 0xec
EndSplineSet
EndChar

StartChar: t
Encoding: 116 116 46
Width: 352
Flags: W
HStem: -10 55<161.5 270.102> 402 49<185 332>
VStem: 101 84<57.8444 402> 160 24<523.021 545>
LayerCount: 2
Fore
SplineSet
185 451 m 1xe0
 332 451 l 5
 332 402 l 1
 185 402 l 1
 186 141 l 2
 186 76 197 45 240 45 c 0
 271 45 298 60 318 74 c 1
 330 56 l 1
 308 36 254 -10 196 -10 c 0
 127 -10 101 32 101 97 c 2
 101 402 l 1xe0
 35 402 l 1
 35 426 l 1
 112 471 143 505 160 545 c 1
 184 545 l 1xd0
 185 451 l 1xe0
EndSplineSet
EndChar

StartChar: u
Encoding: 117 117 47
Width: 593
Flags: W
HStem: -10 55<186.5 325.401> 32 21<513.883 553> 402 33<40 85.4556 324 369.456> 437 20G<54.5455 200 338.545 484>
VStem: 115 85<72.2735 381.148> 399 85<87.0437 381.148>
LayerCount: 2
Fore
SplineSet
115 122 m 2xbc
 115 359 l 2
 115 371 76 396 40 402 c 1
 40 435 l 1
 200 457 l 1
 200 162 l 2
 200 89 221 45 276 45 c 0xbc
 331 45 359 73 399 104 c 1
 399 359 l 2
 399 371 360 396 324 402 c 1
 324 435 l 1
 484 457 l 1
 484 92 l 2
 484 53 495 53 553 53 c 1
 553 32 l 1x7c
 485 18 435 -10 414 -10 c 0
 410 -10 406 -5 406 7 c 0
 406 26 409 57 409 63 c 1
 375 28 297 -10 219 -10 c 0
 154 -10 115 30 115 122 c 2xbc
EndSplineSet
EndChar

StartChar: v
Encoding: 118 118 48
Width: 483
Flags: W
HStem: -10 21G<211.268 254.329> 425 26<10 43.2138 163.698 212 307 341.054 434.039 468>
LayerCount: 2
Fore
SplineSet
10 451 m 5
 212 451 l 5
 212 425 l 5
 198 425 154 423 154 391 c 4
 154 388 155 383 156 381 c 6
 260 116 l 1
 350 340 l 6
 356 355 359 372 359 381 c 4
 359 404 331 425 307 425 c 5
 307 451 l 5
 468 451 l 5
 468 425 l 5
 443 425 417 402 408 379 c 6
 246 -10 l 1
 219 -10 l 1
 69 378 l 6
 55 416 19 425 10 425 c 5
 10 451 l 5
EndSplineSet
EndChar

StartChar: w
Encoding: 119 119 49
Width: 761
Flags: W
HStem: -10 21G<211.248 254.844 488.769 532.351> 424 26<10 43.2138 163.698 212 288 321.214 441.698 490 585 619.054 712.039 746>
LayerCount: 2
Fore
SplineSet
10 450 m 1
 212 450 l 1
 212 424 l 1
 198 424 154 422 154 390 c 0
 154 387 155 382 156 380 c 2
 260 116 l 1
 350 339 l 2
 352 344 354 350 355 355 c 2
 347 377 l 2
 333 415 297 424 288 424 c 1
 288 450 l 1
 490 450 l 1
 490 424 l 1
 476 424 432 422 432 390 c 0
 432 387 433 382 434 380 c 2
 538 116 l 1
 628 339 l 2
 634 354 637 371 637 380 c 0
 637 403 609 424 585 424 c 1
 585 450 l 1
 746 450 l 1
 746 424 l 1
 721 424 695 401 686 378 c 2
 524 -10 l 1
 497 -10 l 1
 376 284 l 1
 246 -10 l 1
 219 -10 l 1
 69 377 l 2
 55 415 19 424 10 424 c 1
 10 450 l 1
EndSplineSet
EndChar

StartChar: x
Encoding: 120 120 50
Width: 539
Flags: W
HStem: 0 26<20 72.464 147.512 206 317 362.925 478.451 519> 425 26<43 81.2752 207.65 250 331 370.988 471.922 519>
LayerCount: 2
Fore
SplineSet
160 65 m 2
 155 60 146 48 146 44 c 0
 146 28 180 26 206 26 c 1
 206 0 l 1
 20 0 l 1
 20 26 l 1
 48 26 83 39 102 60 c 2
 235.386855863 215.123973114 l 1
 117 371 l 2
 102 391 83 425 43 425 c 1
 43 451 l 1
 250 451 l 1
 250 425 l 1
 234 425 198 414 198 399 c 4
 198 397 200 389 207 380 c 2
 288.292548298 276.651333947 l 1
 372 374 l 2
 375 378 383 389 383 398 c 0
 383 409 354 424 331 425 c 1
 331 451 l 1
 519 451 l 1
 519 425 l 1
 480 425 457 407 423 368 c 2
 314.638331772 243.157469685 l 1
 465 52 l 2
 478 36 495 26 519 26 c 1
 519 0 l 1
 317 0 l 1
 317 26 l 1
 337 26 363 26 363 40 c 0
 363 45 360 51 357 55 c 2
 261.015709629 181.379315656 l 1
 160 65 l 2
EndSplineSet
EndChar

StartChar: y
Encoding: 121 121 51
Width: 498
Flags: W
HStem: -235 112<77.6694 158.164> 425 26<25 58.2138 178.698 227 322 356.054 449.039 483>
LayerCount: 2
Fore
SplineSet
211 -126 m 0
 201 -151 173 -235 119 -235 c 0
 83 -235 65 -209 65 -181 c 0
 65 -153 88 -123 116 -123 c 0
 133 -123 141 -123 159 -135 c 1
 223 18 l 1
 84 378 l 2
 70 416 34 425 25 425 c 1
 25 451 l 1
 227 451 l 1
 227 425 l 1
 213 425 169 423 169 391 c 0
 169 388 170 383 171 381 c 2
 275 116 l 1
 365 340 l 2
 371 355 374 372 374 381 c 0
 374 404 346 425 322 425 c 1
 322 451 l 5
 483 451 l 1
 483 425 l 1
 458 425 432 402 423 379 c 0
 352 216 280 39 211 -126 c 0
EndSplineSet
EndChar

StartChar: z
Encoding: 122 122 52
Width: 455
Flags: W
HStem: 0 36<144 336.952> 401 50<106.473 296>
VStem: 49 27<323 359.851> 64 24<454.921 476> 398 22<117.488 130.545>
LayerCount: 2
Fore
SplineSet
49 323 m 1xe8
 64 476 l 1
 88 476 l 1xd8
 91 465 95 451 114 451 c 2
 400 451 l 1
 400 407 l 1
 144 36 l 1
 299 36 l 2
 343 36 385 111 398 136 c 1
 420 128 l 1
 392 0 l 1
 35 0 l 1
 35 26 l 1
 296 401 l 5
 160 401 l 2
 106 401 76 347 76 323 c 1
 49 323 l 1xe8
EndSplineSet
EndChar

StartChar: dollar
Encoding: 36 36 55
Width: 483
Flags: HW
HStem: -11 42<142.386 210 265 292.477> 668 42<265 323.477>
VStem: 40 24<138.621 172> 61 82<483.539 612.183> 210 55<-90 -10.9763 37.4597 286.406 437.427 658.423 709.934 789> 354 89<110.793 229.158> 379 24<563 592.283>
LayerCount: 2
Fore
SplineSet
265 37 m 1xcc
 318 54 354 102 354 163 c 0
 354 222 315 256 265 286 c 1
 265 37 l 1xcc
210 658 m 1
 170 641 143 602 143 555 c 0xd8
 143 500 171 465 210 437 c 1
 210 658 l 1
210 789 m 1
 265 789 l 1
 265 710 l 1
 333 709 343 704 385 697 c 1
 403 563 l 1
 379 563 l 1xda
 363 617 326 664 265 668 c 1
 265 405 l 1
 348 361 443 321 443 202 c 0
 443 96 365 15 265 -6 c 1
 265 -90 l 1
 210 -90 l 1
 210 -11 l 1
 150 -10 102 6 60 27 c 1
 40 172 l 1
 64 172 l 1xec
 89 88 134 36 210 31 c 1
 210 318 l 1
 136 360 61 408 61 519 c 0
 61 629 134 690 210 706 c 1
 210 789 l 1
EndSplineSet
EndChar

StartChar: bracketleft
Encoding: 91 91 56
Width: 255
Flags: HW
HStem: -54 54<155 210> 765 55<155 210>
VStem: 100 110<-54 0 765 820> 100 55<0 765>
LayerCount: 2
Fore
SplineSet
100 820 m 1xe0
 210 820 l 1
 210 765 l 1xe0
 155 765 l 1
 155 0 l 1xd0
 210 0 l 1
 210 -54 l 1
 100 -54 l 1
 100 820 l 1xe0
EndSplineSet
EndChar

StartChar: bracketright
Encoding: 93 93 57
Width: 255
Flags: HW
HStem: -54 54<45 100> 765 55<45 100>
VStem: 45 110<-54 0 765 820> 100 55<0 765>
LayerCount: 2
Fore
SplineSet
155 820 m 1xe0
 155 -54 l 1
 45 -54 l 1
 45 0 l 1xe0
 100 0 l 1
 100 765 l 1xd0
 45 765 l 1
 45 820 l 1
 155 820 l 1xe0
EndSplineSet
EndChar

StartChar: comma
Encoding: 44 44 58
Width: 275
Flags: W
HStem: -188 26<53 85.3879>
VStem: 155 55<-86.9072 30.5>
LayerCount: 2
Fore
SplineSet
53 -188 m 1
 45 -162 l 1
 89 -162 155 -108 155 -44 c 0
 155 41 50 -30 50 56 c 0
 50 92 78 115 114 115 c 0
 175 115 210 61 210 0 c 0
 210 -98 130 -188 53 -188 c 1
EndSplineSet
EndChar

StartChar: period
Encoding: 46 46 59
Width: 270
Flags: HW
HStem: -10 130<73.5181 176.482>
VStem: 60 130<3.51807 106.482>
LayerCount: 2
Fore
SplineSet
60 55 m 0
 60 95 85 120 125 120 c 0
 165 120 190 95 190 55 c 0
 190 15 165 -10 125 -10 c 0
 85 -10 60 15 60 55 c 0
EndSplineSet
EndChar

StartChar: hyphen
Encoding: 45 45 60
Width: 333
Flags: HW
HStem: 215 72<44 282>
VStem: 44 238<215 287>
LayerCount: 2
Fore
SplineSet
282 215 m 1
 44 215 l 1
 44 287 l 1
 282 287 l 1
 282 215 l 1
EndSplineSet
EndChar
